HIERARCHY
ROOT Hips
{
	OFFSET -6.248921 106.853722 -1.149291
	CHANNELS 6 Xposition Yposition Zposition Xrotation Yrotation Zrotation
	JOINT Chest
	{
		OFFSET 1.069945 13.577881 0.806630
		CHANNELS 3 Xrotation Yrotation Zrotation
		JOINT Chest2
		{
			OFFSET 0.943464 21.265327 2.441797
			CHANNELS 3 Xrotation Yrotation Zrotation
			JOINT Chest3
			{
				OFFSET 0.767532 14.906601 0.155561
				CHANNELS 3 Xrotation Yrotation Zrotation
				JOINT Neck
				{
					OFFSET 1.244353 17.185684 1.311415
					CHANNELS 3 Xrotation Yrotation Zrotation
					JOINT Head
					{
						OFFSET 0.804380 10.206802 2.236470
						CHANNELS 3 Xrotation Yrotation Zrotation
						End Site
						{
							OFFSET 0.809765 10.221756 2.165128
						}
					}
				}
				JOINT LeftCollar
				{
					OFFSET 5.264602 12.668823 3.686355
					CHANNELS 3 Xrotation Yrotation Zrotation
					JOINT LeftUpArm
					{
						OFFSET 14.937725 -2.950623 -8.755428
						CHANNELS 3 Xrotation Yrotation Zrotation
						JOINT LeftLowArm
						{
							OFFSET 29.295467 -16.187729 4.411459
							CHANNELS 3 Xrotation Yrotation Zrotation
							JOINT LeftHand
							{
								OFFSET 16.211964 13.473419 21.367863
								CHANNELS 3 Xrotation Yrotation Zrotation
								End Site
								{
									OFFSET 3.543217 2.944717 4.670061
								}
							}
						}
					}
				}
				JOINT RightCollar
				{
					OFFSET -3.123309 13.246979 4.070764
					CHANNELS 3 Xrotation Yrotation Zrotation
					JOINT RightUpArm
					{
						OFFSET -14.998390 -4.438599 -7.990216
						CHANNELS 3 Xrotation Yrotation Zrotation
						JOINT RightLowArm
						{
							OFFSET -14.069914 -29.966049 -6.618794
							CHANNELS 3 Xrotation Yrotation Zrotation
							JOINT RightHand
							{
								OFFSET -16.986626 -23.781418 6.844999
								CHANNELS 3 Xrotation Yrotation Zrotation
								End Site
								{
									OFFSET -3.712589 -5.197670 1.496037
								}
							}
						}
					}
				}
			}
		}
	}
	JOINT LeftUpLeg
	{
		OFFSET 9.959793 -0.828506 0.731594
		CHANNELS 3 Xrotation Yrotation Zrotation
		JOINT LeftLowLeg
		{
			OFFSET 10.351288 -46.033867 4.209983
			CHANNELS 3 Xrotation Yrotation Zrotation
			JOINT LeftFoot
			{
				OFFSET 8.508810 -40.842918 -16.125269
				CHANNELS 3 Xrotation Yrotation Zrotation
				JOINT LeftToe
				{
					OFFSET 3.406147 -17.714207 15.302444
					CHANNELS 3 Xrotation Yrotation Zrotation
					End Site
					{
						OFFSET 2.267645 -3.919164 23.217598
					}
				}
			}
		}
	}
	JOINT RightUpLeg
	{
		OFFSET -9.959812 0.828316 -0.731607
		CHANNELS 3 Xrotation Yrotation Zrotation
		JOINT RightLowLeg
		{
			OFFSET -13.397974 -45.341549 2.941240
			CHANNELS 3 Xrotation Yrotation Zrotation
			JOINT RightFoot
			{
				OFFSET -8.242331 -41.082447 -15.648544
				CHANNELS 3 Xrotation Yrotation Zrotation
				JOINT RightToe
				{
					OFFSET -5.243370 -18.992294 13.090337
					CHANNELS 3 Xrotation Yrotation Zrotation
					End Site
					{
						OFFSET -5.551067 -5.922204 22.218668
					}
				}
			}
		}
	}
}
MOTION
Frames: 8
Frame Time: 0.033333
-36.844818 94.675682 -3.865833 1.955929 -6.691789 -17.146365 4.717131 -0.115471 -5.258258 -5.512360 2.218854 -1.930579 2.056751 10.403094 10.903915 4.646988 -8.923936 8.440761 -0.000000 0.000000 -0.000001 3.922239 -4.485651 25.148687 4.695645 -6.792469 37.875462 -1.703176 -53.352459 50.264277 0.000001 0.000004 -0.000002 10.795402 26.286816 -16.024583 -74.478042 46.946820 39.544664 -13.818802 9.249255 13.063416 0.000002 0.000000 -0.000002 -20.374659 -3.661168 5.431354 26.643993 7.529869 54.546833 28.219304 -0.584320 -2.478053 -0.000000 -0.000000 0.000001 -6.487130 0.748150 26.745720 18.912579 -2.643593 21.444516 -28.864653 -4.838058 -14.190216 -0.000002 0.000001 -0.000000 
-36.864044 94.645088 -3.923660 2.576471 -6.848238 -17.343908 4.179715 -0.045757 -5.033474 -5.753915 2.135467 -1.817682 2.365319 10.815195 10.859907 4.271007 -9.251367 8.656398 0.000001 0.000000 0.000000 3.967116 -4.584627 24.915369 4.706419 -7.185145 38.001929 -1.880170 -53.018804 50.278091 -0.000003 0.000002 0.000001 10.050477 24.766662 -15.550546 -75.021992 46.307682 40.451741 -13.633880 9.114199 13.892181 -0.000001 -0.000003 -0.000002 -21.065717 -3.723914 5.663245 26.652762 7.545049 54.622051 27.838104 -0.728828 -2.479453 0.000002 0.000001 -0.000002 -7.142928 0.653929 27.080921 18.987185 -2.721334 21.422072 -28.593469 -5.382131 -14.546440 -0.000001 0.000001 -0.000000 
-36.884041 94.615318 -3.981719 2.384002 -6.894974 -17.430535 4.427565 -0.072897 -5.044188 -5.313453 2.114590 -1.790192 2.208455 10.574931 10.754679 4.301984 -9.066431 8.441493 0.000001 -0.000000 0.000000 3.857093 -4.512290 24.942717 4.731382 -6.885470 37.889344 -1.109790 -53.653923 49.101376 0.000001 0.000002 0.000001 10.423171 25.426633 -16.048392 -75.656079 47.117261 40.323087 -13.575089 9.025098 13.591966 -0.000000 0.000000 -0.000002 -21.031522 -3.805661 5.831905 26.769180 7.690646 54.479959 27.948871 -0.759351 -2.458297 0.000000 0.000001 -0.000000 -6.701757 0.700730 27.168186 18.665724 -2.772205 21.352080 -28.883651 -5.534389 -14.754896 -0.000004 -0.000003 0.000001 
-36.897598 94.585854 -4.036009 2.469495 -6.526198 -17.455216 4.857504 -0.154695 -4.878261 -5.813600 2.115087 -1.724453 2.553542 10.250826 10.624991 4.032366 -8.858045 8.410924 -0.000002 0.000001 0.000000 3.844087 -4.359505 24.989844 4.735282 -7.247309 37.627553 -0.601368 -53.929890 47.923196 -0.000000 0.000002 0.000003 10.904942 26.087711 -16.615502 -75.578352 47.624536 39.862753 -13.113583 9.129875 11.927506 -0.000001 -0.000000 -0.000001 -21.200887 -3.823863 5.638011 26.511965 7.495521 54.929010 28.400854 -1.120413 -2.626138 -0.000000 -0.000001 -0.000001 -7.326742 0.717069 27.169591 18.784535 -2.611602 21.905982 -29.541002 -5.871753 -15.247880 -0.000002 -0.000000 -0.000000 
-36.915588 94.556984 -4.094107 2.379564 -6.638196 -17.464990 4.780195 -0.127630 -4.988709 -5.701839 2.041768 -1.672410 2.392304 10.450357 10.666035 3.869031 -9.027423 8.512249 -0.000002 0.000000 0.000000 3.752618 -4.367104 24.989523 4.716260 -6.965093 37.508452 -0.401123 -54.282679 48.454547 0.000001 0.000006 0.000001 10.656704 25.868283 -16.300339 -75.466678 47.487727 39.789236 -12.950584 9.101001 11.648899 -0.000003 -0.000000 -0.000004 -21.110877 -3.831423 5.678983 26.673434 7.572852 54.825891 28.451151 -1.076552 -2.614695 0.000003 -0.000001 -0.000002 -7.186067 0.722597 27.156735 18.812624 -2.606792 21.905332 -29.424810 -5.998806 -15.329957 -0.000003 0.000002 -0.000002 
-36.937569 94.523140 -4.152448 2.245556 -6.944921 -17.379377 4.160754 -0.023045 -5.186664 -4.366329 2.082004 -1.859140 1.490487 10.551461 10.828600 3.798747 -9.097212 8.639184 0.000002 -0.000001 -0.000000 3.830136 -4.292603 24.884614 4.982919 -6.687657 37.788233 -1.441861 -53.199141 49.986610 -0.000001 0.000003 0.000003 10.809372 25.839021 -16.388602 -75.567990 47.200586 40.329467 -13.134907 9.507102 11.666519 -0.000006 -0.000001 -0.000000 -20.915725 -3.814532 5.841758 27.022107 7.671452 54.354973 28.161022 -0.870577 -2.550837 0.000000 -0.000002 -0.000005 -7.056150 0.745325 27.194303 19.198627 -2.513239 21.585326 -29.173862 -5.186039 -14.504460 -0.000003 -0.000001 0.000001 
-36.962219 94.490005 -4.214149 1.922825 -6.664349 -17.380229 4.620459 -0.094602 -5.241163 -5.181086 2.056501 -1.744206 1.982151 10.267025 10.738900 3.724523 -9.152938 8.665931 -0.000002 0.000000 0.000000 3.750783 -4.031085 24.803446 4.950553 -6.691564 37.902369 -1.470598 -53.169567 50.093400 -0.000000 0.000005 0.000006 10.939108 26.071208 -16.445332 -75.291019 47.010498 40.230412 -13.366948 9.591271 11.986699 0.000004 0.000001 -0.000005 -20.783548 -3.762944 5.730253 26.944345 7.684276 54.640055 28.319296 -1.186518 -2.625884 0.000002 0.000000 -0.000002 -6.768794 0.726226 27.126706 19.476704 -2.549045 21.667928 -28.803058 -5.192733 -14.339955 -0.000002 0.000001 -0.000001 
-36.983082 94.459465 -4.271632 2.110553 -6.511195 -17.344306 4.559162 -0.074205 -5.328321 -5.049348 2.044992 -1.751036 1.906298 10.134712 10.815609 3.755870 -9.094645 8.618153 0.000001 0.000000 -0.000001 3.522396 -3.825640 24.768778 4.818856 -6.862654 37.872685 -1.070702 -53.647960 49.438815 -0.000002 0.000004 0.000001 10.792908 25.995727 -16.517387 -75.290794 46.791396 40.280511 -13.565206 9.360554 12.465327 0.000003 0.000001 0.000003 -20.873294 -3.783044 5.700355 26.782160 7.599551 54.743881 28.075617 -1.168202 -2.608464 0.000003 -0.000003 -0.000004 -7.169705 0.722845 27.162377 19.441753 -2.504341 21.898507 -29.395679 -5.499365 -14.874929 -0.000002 -0.000001 0.000001 
